<svg xmlns:sodipodi="http://sodipodi.sourceforge.net/DTD/sodipodi-0.dtd" xmlns:inkscape="http://www.inkscape.org/namespaces/inkscape" xmlns:dc="http://purl.org/dc/elements/1.1/" xmlns:svg="http://www.w3.org/2000/svg" xmlns:cc="http://creativecommons.org/ns#" xmlns:rdf="http://www.w3.org/1999/02/22-rdf-syntax-ns#" xmlns="http://www.w3.org/2000/svg" xmlns:xlink="http://www.w3.org/1999/xlink" version="1.1" x="0px" y="0px" viewBox="0 0 539.5 674.375" enable-background="new 0 0 539.5 539.5" xml:space="preserve"><g><path fill="#990000" d="M443.014,305.508l-117.771-14.543l-44.194-88.739c16.563-4.889,28.69-20.228,28.69-38.354v-35.865h34.337   c50.197,0,91.035-40.838,91.035-91.035v-7.5H104.387v7.5c0,50.197,40.838,91.035,91.035,91.035h34.337v35.865   c0,18.127,12.127,33.467,28.691,38.355l-44.193,88.738L96.486,305.508l87.125,96.53l-21.825,107.991l107.964-50.222l107.965,50.222   l-21.826-107.991L443.014,305.508z M202.922,44.471h59.828v68.535h-59.828V44.471z M277.75,44.471h58.826v68.535H277.75V44.471z    M351.576,112.634V44.471h68.168C416.208,80.421,387.526,109.099,351.576,112.634z M119.754,44.471h68.168v68.163   C151.972,109.099,123.29,80.421,119.754,44.471z M244.759,163.871v-35.865h49.98v35.865c0,13.78-11.211,24.991-24.99,24.991   S244.759,177.651,244.759,163.871z M357.133,483.912l-87.383-40.647l-87.382,40.647l17.444-86.312l-72.873-80.739l97.151-11.996   l45.659-91.68l45.659,91.68l97.151,11.996l-72.873,80.739L357.133,483.912z"/><path fill="#990000" d="M382.106,328.215l-76.533-9.45l-35.823-71.931l-35.823,71.931l-76.533,9.45l58.619,64.946l-13.063,64.633l66.801-31.073   l66.801,31.073l-13.063-64.633L382.106,328.215z M269.75,410.178l-46.219,21.499l8.683-42.953l-44.367-49.155l55.914-6.904   l25.989-52.184l25.989,52.184l55.914,6.904l-44.366,49.155l8.682,42.953L269.75,410.178z"/><rect x="152.679" y="248.286" transform="matrix(-0.7071 -0.7071 0.7071 -0.7071 96.7441 551.642)" width="19.873" height="15"/><rect  x="123.469" y="219.076" transform="matrix(0.7071 0.7071 -0.7071 0.7071 199.2779 -27.9716)" width="19.873" height="15"/><rect  x="152.678" y="219.076" transform="matrix(0.7071 -0.7071 0.7071 0.7071 -112.5864 181.3582)" width="19.873" height="15"/><rect  x="123.468" y="248.286" transform="matrix(-0.7071 0.7071 -0.7071 -0.7071 408.6073 342.3132)" width="19.873" height="15"/><rect  x="414.811" y="423.478" transform="matrix(-0.7071 -0.7071 0.7071 -0.7071 420.3622 1036.0671)" width="19.873" height="15"/><rect  x="385.6" y="394.268" transform="matrix(-0.7071 -0.7071 0.7071 -0.7071 391.1312 965.548)" width="19.874" height="15"/><rect  x="417.246" y="391.832" transform="matrix(-0.7071 -0.7071 0.7071 -0.7071 441.0214 986.2023)" width="15" height="19.874"/><rect  x="388.037" y="421.042" transform="matrix(-0.7072 -0.707 0.707 -0.7072 370.5292 1015.4153)" width="15" height="19.873"/></g><text x="0" y="554.5" fill="#000000" font-size="5px" font-weight="bold" font-family="'Helvetica Neue', Helvetica, Arial-Unicode, Arial, Sans-serif"></text><text x="0" y="559.5"  font-size="5px" font-weight="bold" font-family="'Helvetica Neue', Helvetica, Arial-Unicode, Arial, Sans-serif"></text></svg>